<?xml version="1.0" encoding="UTF-8"?><svg id="Laag_1" xmlns="http://www.w3.org/2000/svg" viewBox="0 0 85.04 85.04"><path d="M80.18,61.83v18.35h-18.35v-18.35h18.35m.28-5h-18.9c-1.13,0-2.17,.4-2.98,1.06-1.06,.87-1.74,2.19-1.74,3.66v18.9c0,2.61,2.12,4.72,4.72,4.72h18.9c2.61,0,4.72-2.11,4.72-4.72v-18.9c0-2.61-2.12-4.72-4.72-4.72h0Z"/><path d="M80.18,5V23.35h-18.35V5h18.35M80.45,0h-18.9C60.42,0,59.39,.4,58.57,1.06c-1.06,.87-1.74,2.19-1.74,3.66V23.62c0,2.61,2.12,4.72,4.72,4.72h18.9c2.61,0,4.72-2.11,4.72-4.72V4.72C85.18,2.12,83.06,0,80.45,0h0Z"/><path d="M23.11,61.83v18.35H4.76v-18.35H23.11m.28-5H4.48c-1.13,0-2.17,.4-2.98,1.06-1.06,.87-1.74,2.19-1.74,3.66v18.9c0,2.61,2.12,4.72,4.72,4.72H23.38c2.61,0,4.72-2.11,4.72-4.72v-18.9c0-2.61-2.12-4.72-4.72-4.72h0Z"/><path d="M23.11,5V23.35H4.76V5H23.11M23.38,0H4.48C3.35,0,2.31,.4,1.5,1.06,.44,1.93-.24,3.25-.24,4.72V23.62c0,2.61,2.12,4.72,4.72,4.72H23.38c2.61,0,4.72-2.11,4.72-4.72V4.72C28.11,2.12,25.99,0,23.38,0h0Z"/></svg>